<?xml version="1.0" encoding="UTF-8" standalone="no"?>
<!DOCTYPE svg PUBLIC "-//W3C//DTD SVG 1.1//EN" "http://www.w3.org/Graphics/SVG/1.1/DTD/svg11.dtd">
<svg width="100%" height="100%" viewBox="0 0 118 37" version="1.1" xmlns="http://www.w3.org/2000/svg" xmlns:xlink="http://www.w3.org/1999/xlink" xml:space="preserve" xmlns:serif="http://www.serif.com/" style="fill-rule:evenodd;clip-rule:evenodd;stroke-linejoin:round;stroke-miterlimit:2;">
    <g id="cone-logo-footer.svg" transform="matrix(0.35159,0,0,0.35159,16.7005,18.0075)">
        <g transform="matrix(1,0,0,1,-47.5,-47.5)">
            <path d="M0,18.75L0,75.292C0,80.265 1.975,85.034 5.492,88.551C9.008,92.067 13.777,94.043 18.75,94.043L75.292,94.042C80.265,94.043 85.034,92.067 88.551,88.551C92.067,85.034 94.043,80.265 94.042,75.292L94.042,18.75C94.043,13.777 92.067,9.008 88.551,5.492C85.034,1.975 80.265,0 75.292,0L18.75,0C13.777,0 9.008,1.975 5.492,5.492C1.975,9.008 0,13.777 0,18.75Z" style="fill:white;"/>
            <g>
                <clipPath id="_clip1">
                    <path d="M0,18.75L0,75.292C0,80.265 1.975,85.034 5.492,88.551C9.008,92.067 13.777,94.043 18.75,94.043L75.292,94.042C80.265,94.043 85.034,92.067 88.551,88.551C92.067,85.034 94.043,80.265 94.042,75.292L94.042,18.75C94.043,13.777 92.067,9.008 88.551,5.492C85.034,1.975 80.265,0 75.292,0L18.75,0C13.777,0 9.008,1.975 5.492,5.492C1.975,9.008 0,13.777 0,18.75Z"/>
                </clipPath>
                <g clip-path="url(#_clip1)">
                    <g>
                        <g>
                            <rect x="0" y="31.348" width="31.348" height="31.348" style="fill:rgb(0,101,239);"/>
                            <rect x="31.348" y="31.348" width="31.348" height="31.348" style="fill:rgb(0,101,239);fill-opacity:0.9;"/>
                            <rect x="62.695" y="31.348" width="31.348" height="31.348" style="fill:rgb(0,101,239);fill-opacity:0.8;"/>
                        </g>
                        <g>
                            <rect x="0" y="62.695" width="31.348" height="31.348" style="fill:rgb(0,182,239);"/>
                            <rect x="31.348" y="62.695" width="31.348" height="31.348" style="fill:rgb(0,182,239);fill-opacity:0.9;"/>
                            <rect x="62.695" y="62.695" width="31.348" height="31.348" style="fill:rgb(0,182,239);fill-opacity:0.8;"/>
                        </g>
                        <g>
                            <rect x="0" y="0" width="31.348" height="31.348" style="fill:rgb(0,8,239);"/>
                            <rect x="31.348" y="0" width="31.348" height="31.348" style="fill:rgb(0,8,239);fill-opacity:0.9;"/>
                            <rect x="62.695" y="0" width="31.348" height="31.348" style="fill:rgb(0,8,239);fill-opacity:0.8;"/>
                        </g>
                    </g>
                </g>
            </g>
        </g>
    </g>
    <path d="M58.435,36.6L58.435,23.451C58.005,24.829 57.254,25.908 56.181,26.687C55.108,27.467 53.848,27.856 52.402,27.856C50.753,27.856 49.313,27.427 48.082,26.569C46.85,25.71 45.902,24.552 45.235,23.095C44.569,21.638 44.235,19.994 44.235,18.164C44.235,16.357 44.569,14.719 45.235,13.25C45.902,11.782 46.85,10.618 48.082,9.76C49.313,8.901 50.753,8.472 52.402,8.472C53.848,8.472 55.108,8.862 56.181,9.641C57.254,10.421 58.005,11.511 58.435,12.912L58.435,8.709L64.162,8.709L64.162,36.6L58.435,36.6ZM108.42,27.856C107.042,27.856 105.726,27.642 104.472,27.212C103.218,26.783 102.111,26.156 101.151,25.332C100.191,24.507 99.434,23.507 98.881,22.332C98.327,21.158 98.05,19.813 98.05,18.3C98.05,16.854 98.316,15.532 98.847,14.335C99.378,13.137 100.1,12.098 101.015,11.217C101.93,10.336 102.992,9.658 104.201,9.184C105.41,8.709 106.692,8.472 108.047,8.472C109.154,8.472 110.211,8.619 111.216,8.913C112.221,9.206 113.125,9.636 113.927,10.2C114.729,10.765 115.362,11.432 115.825,12.2C116.288,12.968 116.519,13.826 116.519,14.775C116.519,15.973 116.181,16.967 115.503,17.758C114.825,18.548 113.938,19.17 112.843,19.621C111.747,20.073 110.549,20.395 109.25,20.587C107.951,20.779 106.669,20.864 105.404,20.841C105.246,20.841 105.06,20.836 104.845,20.824C104.63,20.813 104.433,20.802 104.252,20.791C104.071,20.779 103.936,20.774 103.845,20.774C103.981,21.293 104.269,21.762 104.709,22.18C105.15,22.598 105.709,22.931 106.387,23.18C107.065,23.428 107.765,23.552 108.488,23.552C109.211,23.552 109.906,23.428 110.572,23.18C111.239,22.931 111.843,22.615 112.385,22.231C112.927,21.847 113.39,21.418 113.774,20.943L117.434,23.824C116.757,24.727 115.932,25.478 114.961,26.077C113.989,26.676 112.944,27.122 111.826,27.416C110.708,27.709 109.572,27.856 108.42,27.856ZM89.375,27.619L89.375,8.709L95.068,8.709L95.068,27.619L89.375,27.619ZM68.398,27.619L68.398,2.542L74.125,2.542L74.125,16.097C75.164,15.871 76.153,15.408 77.09,14.708C78.028,14.007 78.835,13.137 79.513,12.098C80.191,11.059 80.654,9.929 80.903,8.709L86.969,8.709C86.63,10.11 86.054,11.443 85.24,12.708C84.427,13.973 83.484,15.08 82.411,16.029C81.338,16.978 80.202,17.701 79.005,18.198C79.931,18.424 80.835,18.842 81.716,19.452C82.597,20.062 83.416,20.791 84.173,21.638C84.93,22.485 85.574,23.423 86.105,24.451C86.635,25.478 87.003,26.535 87.206,27.619L81.072,27.619C80.869,26.648 80.541,25.75 80.089,24.925C79.638,24.1 79.101,23.383 78.48,22.773C77.858,22.163 77.175,21.666 76.429,21.282C75.684,20.898 74.916,20.649 74.125,20.536L74.125,27.619L68.398,27.619ZM54.266,22.841C55.012,22.841 55.701,22.66 56.334,22.299C56.966,21.937 57.474,21.406 57.859,20.706C58.243,20.005 58.435,19.158 58.435,18.164C58.435,17.193 58.243,16.357 57.859,15.656C57.474,14.956 56.966,14.414 56.334,14.03C55.701,13.646 55.012,13.454 54.266,13.454C53.498,13.454 52.798,13.646 52.165,14.03C51.533,14.414 51.03,14.956 50.657,15.656C50.284,16.357 50.098,17.193 50.098,18.164C50.098,19.158 50.284,20.005 50.657,20.706C51.03,21.406 51.538,21.937 52.182,22.299C52.826,22.66 53.521,22.841 54.266,22.841ZM105.438,17.08C106.048,17.08 106.681,17.046 107.336,16.978C107.991,16.91 108.595,16.792 109.149,16.622C109.702,16.453 110.154,16.216 110.504,15.911C110.854,15.606 111.03,15.216 111.03,14.741C111.03,14.357 110.894,14.019 110.623,13.725C110.352,13.431 109.99,13.205 109.538,13.047C109.087,12.889 108.601,12.81 108.081,12.81C107.178,12.81 106.387,13.024 105.709,13.454C105.031,13.883 104.512,14.42 104.15,15.063C103.789,15.707 103.585,16.357 103.54,17.012C103.744,17.035 104.02,17.052 104.37,17.063C104.721,17.074 105.076,17.08 105.438,17.08ZM92.255,6.71C91.148,6.71 90.245,6.394 89.544,5.761C88.844,5.128 88.494,4.338 88.494,3.389C88.494,2.417 88.844,1.61 89.544,0.966C90.245,0.322 91.148,0 92.255,0C93.34,0 94.232,0.322 94.933,0.966C95.633,1.61 95.983,2.417 95.983,3.389C95.983,4.338 95.633,5.128 94.933,5.761C94.232,6.394 93.34,6.71 92.255,6.71Z" style="fill:white;fill-rule:nonzero;"/>
</svg>
